<svg id="Layer_1" data-name="Layer 1" xmlns="http://www.w3.org/2000/svg" viewBox="0 0 714.73 400.71"><defs><style>.cls-1,.cls-10,.cls-25{fill:#808285;}.cls-2,.cls-8{fill:#515aa8;}.cls-11,.cls-3{fill:#1ca0bf;}.cls-4,.cls-9{fill:#00aeef;}.cls-24,.cls-5{fill:#88c540;}.cls-6,.cls-7{fill:#cccbcb;}.cls-10,.cls-11,.cls-20,.cls-24,.cls-7,.cls-8,.cls-9{fill-rule:evenodd;}.cls-12{fill:#fff;}.cls-13,.cls-25{font-size:12px;font-family:MyriadPro-Regular, Myriad Pro;}.cls-13{fill:#414042;}.cls-14{letter-spacing:0.02em;}.cls-15{letter-spacing:-0.08em;}.cls-16{letter-spacing:-0.08em;}.cls-17{letter-spacing:0em;}.cls-18{letter-spacing:-0.01em;}.cls-19,.cls-20{fill:#be1e2d;}.cls-21{letter-spacing:-0.01em;}.cls-22{letter-spacing:-0.03em;}.cls-23{letter-spacing:0em;}.cls-26{letter-spacing:0.01em;}.cls-27{letter-spacing:0.02em;}.cls-28{letter-spacing:0em;}.cls-29{letter-spacing:0em;}.cls-30{letter-spacing:0.01em;}.cls-31{letter-spacing:-0.01em;}.cls-32{letter-spacing:0em;}</style></defs><title>flow-pelayanan-ppid</title><path class="cls-1" d="M142.46,163.15a65.92,65.92,0,1,1-65.93,65.93,65.93,65.93,0,0,1,65.93-65.93Zm0,2.16a3.76,3.76,0,1,0,3.76,3.76,3.76,3.76,0,0,0-3.76-3.76Zm0,9.39a54.37,54.37,0,1,0,54.37,54.37,54.37,54.37,0,0,0-54.37-54.37Z" transform="translate(-38.97 -83.31)"/><path class="cls-2" d="M291.71,163.15a65.92,65.92,0,1,1-65.92,65.93,65.93,65.93,0,0,1,65.92-65.93Zm0,2.16a3.76,3.76,0,1,0,3.76,3.76,3.76,3.76,0,0,0-3.76-3.76Zm0,9.39a54.37,54.37,0,1,0,54.37,54.37,54.37,54.37,0,0,0-54.37-54.37Z" transform="translate(-38.97 -83.31)"/><path class="cls-3" d="M441,163.15A65.92,65.92,0,1,1,375,229.08,65.93,65.93,0,0,1,441,163.15Zm0,2.16a3.76,3.76,0,1,0,3.76,3.76,3.76,3.76,0,0,0-3.76-3.76Zm0,9.39a54.37,54.37,0,1,0,54.38,54.37A54.37,54.37,0,0,0,441,174.7Z" transform="translate(-38.97 -83.31)"/><path class="cls-4" d="M590.21,163.15a65.92,65.92,0,1,1-65.93,65.93,65.93,65.93,0,0,1,65.93-65.93Zm0,2.16a3.76,3.76,0,1,0,3.76,3.76,3.76,3.76,0,0,0-3.76-3.76Zm0,9.39a54.37,54.37,0,1,0,54.38,54.37,54.37,54.37,0,0,0-54.38-54.37Z" transform="translate(-38.97 -83.31)"/><path class="cls-5" d="M673.08,353.81a65.92,65.92,0,1,1-49.59,79,65.93,65.93,0,0,1,49.59-79Zm.48,2.11a3.76,3.76,0,1,0,4.5,2.83,3.76,3.76,0,0,0-4.5-2.83Zm2.09,9.15A54.37,54.37,0,1,0,740.77,406a54.37,54.37,0,0,0-65.12-40.9Z" transform="translate(-38.97 -83.31)"/><path class="cls-6" d="M112.73,107.27a1.44,1.44,0,0,1,0-2.89h2.89a1.44,1.44,0,0,1,0,2.89Zm-57.75,0a1.44,1.44,0,1,1,0-2.89h2.89a1.44,1.44,0,1,1,0,2.89Zm11.55,0a1.44,1.44,0,0,1,0-2.89h2.89a1.44,1.44,0,0,1,0,2.89Zm11.55,0a1.44,1.44,0,1,1,0-2.89H81a1.44,1.44,0,1,1,0,2.89Zm11.55,0a1.44,1.44,0,0,1,0-2.89h2.89a1.44,1.44,0,1,1,0,2.89Zm11.55,0a1.44,1.44,0,1,1,0-2.89h2.89a1.44,1.44,0,0,1,0,2.89Z" transform="translate(-38.97 -83.31)"/><path class="cls-6" d="M141,131.25a1.44,1.44,0,1,1,2.89,0v2.89a1.44,1.44,0,1,1-2.89,0v-2.89Zm0,23.1a1.44,1.44,0,0,1,2.89,0v2.89a1.44,1.44,0,0,1-2.89,0v-2.89Zm0-11.55a1.44,1.44,0,1,1,2.89,0v2.89a1.44,1.44,0,1,1-2.89,0V142.8Z" transform="translate(-38.97 -83.31)"/><polygon class="cls-7" points="0 29.34 6.84 22.5 0 15.66 0 29.34 0 29.34"/><path class="cls-6" d="M261.4,107.27a1.44,1.44,0,1,1,0-2.89h2.89a1.44,1.44,0,1,1,0,2.89Zm-92.34,0a1.44,1.44,0,0,1,0-2.89H172a1.44,1.44,0,1,1,0,2.89Zm11.55,0a1.44,1.44,0,1,1,0-2.89h2.89a1.44,1.44,0,1,1,0,2.89Zm11.55,0a1.44,1.44,0,0,1,0-2.89h2.89a1.44,1.44,0,0,1,0,2.89Zm11.48,0a1.44,1.44,0,1,1,0-2.89h2.89a1.44,1.44,0,0,1,0,2.89Zm11.55,0a1.44,1.44,0,1,1,0-2.89h2.89a1.44,1.44,0,1,1,0,2.89Zm11.55,0a1.44,1.44,0,0,1,0-2.89h2.89a1.44,1.44,0,0,1,0,2.89Zm11.55,0a1.44,1.44,0,1,1,0-2.89h2.89a1.44,1.44,0,1,1,0,2.89Zm11.55,0a1.44,1.44,0,1,1,0-2.89h2.89a1.44,1.44,0,0,1,0,2.89Z" transform="translate(-38.97 -83.31)"/><path class="cls-6" d="M290.27,131.25a1.44,1.44,0,1,1,2.89,0v2.89a1.44,1.44,0,1,1-2.89,0v-2.89Zm0,23.1a1.44,1.44,0,0,1,2.89,0v2.89a1.44,1.44,0,0,1-2.89,0v-2.89Zm0-11.55a1.44,1.44,0,1,1,2.89,0v2.89a1.44,1.44,0,1,1-2.89,0V142.8Z" transform="translate(-38.97 -83.31)"/><path class="cls-6" d="M439.51,131.25a1.44,1.44,0,0,1,2.89,0v2.89a1.44,1.44,0,0,1-2.89,0v-2.89Zm0,23.1a1.44,1.44,0,0,1,2.89,0v2.89a1.44,1.44,0,0,1-2.89,0v-2.89Zm0-11.55a1.44,1.44,0,0,1,2.89,0v2.89a1.44,1.44,0,0,1-2.89,0V142.8Z" transform="translate(-38.97 -83.31)"/><path class="cls-6" d="M410.7,107.27a1.44,1.44,0,0,1,0-2.89h2.89a1.44,1.44,0,0,1,0,2.89Zm-92.34,0a1.44,1.44,0,0,1,0-2.89h2.89a1.44,1.44,0,0,1,0,2.89Zm11.55,0a1.44,1.44,0,0,1,0-2.89h2.89a1.44,1.44,0,0,1,0,2.89Zm11.55,0a1.44,1.44,0,0,1,0-2.89h2.89a1.44,1.44,0,1,1,0,2.89Zm11.48,0a1.44,1.44,0,1,1,0-2.89h2.89a1.44,1.44,0,0,1,0,2.89Zm11.55,0a1.44,1.44,0,0,1,0-2.89h2.89a1.44,1.44,0,0,1,0,2.89Zm11.55,0a1.44,1.44,0,1,1,0-2.89h2.89a1.44,1.44,0,0,1,0,2.89Zm11.55,0a1.44,1.44,0,1,1,0-2.89h2.89a1.44,1.44,0,1,1,0,2.89Zm11.55,0a1.44,1.44,0,0,1,0-2.89H402a1.44,1.44,0,1,1,0,2.89Z" transform="translate(-38.97 -83.31)"/><path class="cls-6" d="M588.76,131.25a1.44,1.44,0,1,1,2.89,0v2.89a1.44,1.44,0,1,1-2.89,0v-2.89Zm0,23.1a1.44,1.44,0,1,1,2.89,0v2.89a1.44,1.44,0,1,1-2.89,0v-2.89Zm0-11.55a1.44,1.44,0,1,1,2.89,0v2.89a1.44,1.44,0,1,1-2.89,0V142.8Z" transform="translate(-38.97 -83.31)"/><path class="cls-6" d="M560.09,107.27a1.44,1.44,0,0,1,0-2.89H563a1.44,1.44,0,0,1,0,2.89Zm-92.33,0a1.44,1.44,0,1,1,0-2.89h2.89a1.44,1.44,0,1,1,0,2.89Zm11.55,0a1.44,1.44,0,1,1,0-2.89h2.89a1.44,1.44,0,1,1,0,2.89Zm11.55,0a1.44,1.44,0,0,1,0-2.89h2.89a1.44,1.44,0,0,1,0,2.89Zm11.48,0a1.44,1.44,0,1,1,0-2.89h2.89a1.44,1.44,0,1,1,0,2.89Zm11.55,0a1.44,1.44,0,1,1,0-2.89h2.89a1.44,1.44,0,1,1,0,2.89Zm11.55,0a1.44,1.44,0,0,1,0-2.89h2.89a1.44,1.44,0,1,1,0,2.89Zm11.55,0a1.44,1.44,0,1,1,0-2.89h2.89a1.44,1.44,0,1,1,0,2.89Zm11.55,0a1.44,1.44,0,0,1,0-2.89h2.89a1.44,1.44,0,0,1,0,2.89Z" transform="translate(-38.97 -83.31)"/><path class="cls-8" d="M291.72,234.42a.5.5,0,0,1-.54.45h0a.5.5,0,0,1-.54-.45v-3.23a.5.5,0,0,1,.54-.45h0a.5.5,0,0,1,.54.45v3.23Z" transform="translate(-38.97 -83.31)"/><path class="cls-8" d="M280.42,239.4a.51.51,0,0,1,0,.71h0a.51.51,0,0,1-.7.1l-2.4-2.16a.5.5,0,0,1,0-.71h0a.5.5,0,0,1,.7-.1l2.4,2.16Z" transform="translate(-38.97 -83.31)"/><path class="cls-8" d="M276.56,251.13a.51.51,0,0,1,.51.49h0a.51.51,0,0,1-.39.59l-3.22.34a.5.5,0,0,1-.51-.49h0a.5.5,0,0,1,.39-.59l3.22-.34Z" transform="translate(-38.97 -83.31)"/><path class="cls-8" d="M306.75,251.25a.5.5,0,0,1-.39-.59h0a.51.51,0,0,1,.51-.49l3.21.34a.5.5,0,0,1,.39.59h0a.5.5,0,0,1-.51.49l-3.22-.34Z" transform="translate(-38.97 -83.31)"/><path class="cls-8" d="M303,239.49a.5.5,0,0,1-.7-.1h0a.5.5,0,0,1,0-.7l2.4-2.17a.5.5,0,0,1,.7.1h0a.51.51,0,0,1,0,.71l-2.4,2.16Z" transform="translate(-38.97 -83.31)"/><path class="cls-8" d="M294.79,264.12a1,1,0,0,1-.41.85.83.83,0,0,1-.48.16h-5.55a.82.82,0,0,1-.48-.16,1.05,1.05,0,0,1-.41-.85V261h7.33v3.12Zm-8-21.78a7.19,7.19,0,0,0-.32,11.27.53.53,0,0,1,.09.71h0a.54.54,0,0,1-.79.11,8.27,8.27,0,0,1,.38-13,.54.54,0,0,1,.77.12h0a.53.53,0,0,1-.12.73Zm15.83,5.77a11.53,11.53,0,1,0-16.28,10.51v5.5a2,2,0,0,0,1.65,2.06,4.69,4.69,0,0,0,.29.83,2.64,2.64,0,0,0,2,1.77h1.56a2.63,2.63,0,0,0,2-1.77,4.53,4.53,0,0,0,.29-.83,2.05,2.05,0,0,0,1.65-2.06v-5.5a11.54,11.54,0,0,0,6.79-10.51Z" transform="translate(-38.97 -83.31)"/><path class="cls-9" d="M597.76,241.81c0,4-3.26,8.2-7.29,8.2s-7.29-4.18-7.29-8.2a7.29,7.29,0,0,1,14.57,0Z" transform="translate(-38.97 -83.31)"/><path class="cls-9" d="M600.78,268.27a2.42,2.42,0,0,0,2.42-2.42v-1.68c0-5.2-3.75-12.9-12.73-12.9-8.63,0-12.73,7.41-12.73,12.68v1.9a2.42,2.42,0,0,0,2.42,2.42Z" transform="translate(-38.97 -83.31)"/><path class="cls-9" d="M580.42,244.27c0,2.94-2.38,6.24-5.32,6.24s-5.32-3.3-5.32-6.24a5.32,5.32,0,1,1,10.64,0Z" transform="translate(-38.97 -83.31)"/><path class="cls-9" d="M581.24,253.44a9.5,9.5,0,0,0-6.14-2.28,9.29,9.29,0,0,0-9.25,8.44h0a4,4,0,0,0,4,4h6.79a12.83,12.83,0,0,1,4.67-10.14Z" transform="translate(-38.97 -83.31)"/><path class="cls-9" d="M600.49,244.27c0,2.94,2.38,6.24,5.32,6.24s5.32-3.3,5.32-6.24a5.32,5.32,0,1,0-10.64,0Z" transform="translate(-38.97 -83.31)"/><path class="cls-9" d="M599.67,253.44a9.49,9.49,0,0,1,6.14-2.28,9.3,9.3,0,0,1,9.25,8.44h0a4,4,0,0,1-4,4h-6.79a12.82,12.82,0,0,0-4.66-10.14Z" transform="translate(-38.97 -83.31)"/><path class="cls-10" d="M142.46,87a18.23,18.23,0,1,1-18.23,18.23A18.23,18.23,0,0,1,142.46,87Z" transform="translate(-38.97 -83.31)"/><path class="cls-1" d="M142.46,83.31a21.94,21.94,0,1,1-21.94,21.94,21.94,21.94,0,0,1,21.94-21.94Zm0,2.17a19.77,19.77,0,1,0,19.77,19.77,19.77,19.77,0,0,0-19.77-19.77Z" transform="translate(-38.97 -83.31)"/><path class="cls-8" d="M291.71,87a18.23,18.23,0,1,1-18.23,18.23A18.23,18.23,0,0,1,291.71,87Z" transform="translate(-38.97 -83.31)"/><path class="cls-2" d="M291.71,83.31a21.94,21.94,0,1,1-21.93,21.94,21.94,21.94,0,0,1,21.93-21.94Zm0,2.17a19.77,19.77,0,1,0,19.77,19.77,19.77,19.77,0,0,0-19.77-19.77Z" transform="translate(-38.97 -83.31)"/><path class="cls-11" d="M441,87a18.23,18.23,0,1,1-18.23,18.23A18.23,18.23,0,0,1,441,87Z" transform="translate(-38.97 -83.31)"/><path class="cls-3" d="M441,83.31A21.94,21.94,0,1,1,419,105.25,21.94,21.94,0,0,1,441,83.31Zm0,2.17a19.77,19.77,0,1,0,19.77,19.77A19.77,19.77,0,0,0,441,85.48Z" transform="translate(-38.97 -83.31)"/><path class="cls-9" d="M590.21,87A18.23,18.23,0,1,1,572,105.25,18.23,18.23,0,0,1,590.21,87Z" transform="translate(-38.97 -83.31)"/><path class="cls-4" d="M590.21,83.31a21.94,21.94,0,1,1-21.93,21.94,21.94,21.94,0,0,1,21.93-21.94Zm0,2.17A19.77,19.77,0,1,0,610,105.25a19.77,19.77,0,0,0-19.77-19.77Z" transform="translate(-38.97 -83.31)"/><path class="cls-12" d="M147.66,109.27v3h-9.93v-3h3.47v-7.41a2.67,2.67,0,0,1-.7.6,9.67,9.67,0,0,1-1,.57,7.45,7.45,0,0,1-1.16.44,3.94,3.94,0,0,1-1.06.17v-3.06a2.78,2.78,0,0,0,1.08-.28,9.27,9.27,0,0,0,1.25-.67,10.39,10.39,0,0,0,1.06-.77,2.58,2.58,0,0,0,.57-.6h3.35v11Z" transform="translate(-38.97 -83.31)"/><path class="cls-12" d="M285.82,112.35a10.63,10.63,0,0,1,.17-2,5.39,5.39,0,0,1,.6-1.65,5.55,5.55,0,0,1,1.17-1.42,10.61,10.61,0,0,1,1.89-1.3l1.77-.94a14.37,14.37,0,0,0,1.28-.75,3.22,3.22,0,0,0,.78-.7,1.32,1.32,0,0,0,.27-.82,1.63,1.63,0,0,0-.59-1.26,2.45,2.45,0,0,0-1.69-.53,3.47,3.47,0,0,0-1.08.16,4.07,4.07,0,0,0-.92.43,5.18,5.18,0,0,0-.78.6,6.52,6.52,0,0,0-.65.7l-2.1-2.42a5.52,5.52,0,0,1,.9-.75,8.68,8.68,0,0,1,1.38-.76,10.08,10.08,0,0,1,1.76-.59,8.82,8.82,0,0,1,2.07-.23,7.46,7.46,0,0,1,2.23.31,4.85,4.85,0,0,1,1.65.86,3.67,3.67,0,0,1,1,1.32,4,4,0,0,1,.35,1.67,3.45,3.45,0,0,1-.32,1.52,4.54,4.54,0,0,1-.81,1.17,6.09,6.09,0,0,1-1.06.89q-.58.38-1.11.67l-1,.56q-.56.32-1.11.7a11.57,11.57,0,0,0-1,.78,3.63,3.63,0,0,0-.71.79h7.41v3Z" transform="translate(-38.97 -83.31)"/><path class="cls-12" d="M443.56,104.72a3.91,3.91,0,0,1,2.46,1.45,4.52,4.52,0,0,1,.94,2.9,4.68,4.68,0,0,1-.45,2.08,4.47,4.47,0,0,1-1.27,1.58,5.94,5.94,0,0,1-2,1,9.11,9.11,0,0,1-2.64.35,8.44,8.44,0,0,1-3.29-.6,6.11,6.11,0,0,1-2.38-1.75l1.86-2.32a4.46,4.46,0,0,0,1.52,1.25,4.9,4.9,0,0,0,2.2.44,3.75,3.75,0,0,0,2.27-.59,2.11,2.11,0,0,0,.78-1.81,2.31,2.31,0,0,0-.91-2,4.52,4.52,0,0,0-2.74-.68h-.68v-2.44H440a3.64,3.64,0,0,0,2.35-.67,2.12,2.12,0,0,0,.83-1.72,1.71,1.71,0,0,0-.68-1.49,3,3,0,0,0-1.78-.49,4,4,0,0,0-2,.51,4,4,0,0,0-1.46,1.44l-2.05-2.3a4,4,0,0,1,1-1,6.82,6.82,0,0,1,1.38-.78,8.54,8.54,0,0,1,1.67-.51,9.32,9.32,0,0,1,1.86-.18,7.67,7.67,0,0,1,2.27.32,5.74,5.74,0,0,1,1.77.88A3.91,3.91,0,0,1,446.26,99a3.86,3.86,0,0,1,.4,1.77,4.42,4.42,0,0,1-.22,1.39,4.05,4.05,0,0,1-.64,1.2,3.86,3.86,0,0,1-1,.9,3.43,3.43,0,0,1-1.26.49Z" transform="translate(-38.97 -83.31)"/><path class="cls-12" d="M590,113.78v-3.64h-7.14v-2.91l8.19-10.51h2.22V107.2h2.15v2.93H593.3v3.64Zm-3.86-6.58h4.23v-5.53l-4.23,5.53Z" transform="translate(-38.97 -83.31)"/><text class="cls-13" transform="translate(76.09 132.23)">PEMOHON</text><path class="cls-10" d="M149.76,242.81c0,4-3.26,8.2-7.29,8.2s-7.29-4.18-7.29-8.2a7.29,7.29,0,0,1,14.57,0Z" transform="translate(-38.97 -83.31)"/><path class="cls-10" d="M152.78,269.27a2.42,2.42,0,0,0,2.42-2.42v-1.68c0-5.2-3.75-12.9-12.73-12.9-8.63,0-12.73,7.41-12.73,12.68v1.9a2.42,2.42,0,0,0,2.42,2.42Z" transform="translate(-38.97 -83.31)"/><path class="cls-10" d="M132.42,245.27c0,2.94-2.38,6.24-5.32,6.24s-5.32-3.3-5.32-6.24a5.32,5.32,0,1,1,10.64,0Z" transform="translate(-38.97 -83.31)"/><path class="cls-10" d="M133.24,254.44a9.5,9.5,0,0,0-6.14-2.28,9.29,9.29,0,0,0-9.25,8.44h0a4,4,0,0,0,4,4h6.79a12.83,12.83,0,0,1,4.67-10.14Z" transform="translate(-38.97 -83.31)"/><path class="cls-10" d="M152.49,245.27c0,2.94,2.38,6.24,5.32,6.24s5.32-3.3,5.32-6.24a5.32,5.32,0,1,0-10.64,0Z" transform="translate(-38.97 -83.31)"/><path class="cls-10" d="M151.67,254.44a9.49,9.49,0,0,1,6.14-2.28,9.3,9.3,0,0,1,9.25,8.44h0a4,4,0,0,1-4,4h-6.79a12.82,12.82,0,0,0-4.66-10.14Z" transform="translate(-38.97 -83.31)"/><text class="cls-13" transform="translate(214.01 122.23)">M<tspan class="cls-14" x="9.65" y="0">E</tspan><tspan x="15.77" y="0">JA L</tspan><tspan class="cls-15" x="35.76" y="0">A</tspan><tspan class="cls-16" x="42.16" y="0">Y</tspan><tspan class="cls-17" x="47.68" y="0">ANAN</tspan><tspan x="10.58" y="14.4">INFOR</tspan><tspan class="cls-18" x="41.92" y="14.4">M</tspan><tspan x="51.44" y="14.4">ASI</tspan></text><text class="cls-13" transform="translate(390.09 132.23)">PPID</text><path class="cls-11" d="M456.93,244.92c0,1.81-6.75,3.84-16.44,3.84s-16.45-2-16.45-3.84c0-.44.4-.89,1.14-1.32,3,1.57,9.29,2.4,15.31,2.4s12.33-.84,15.31-2.41c.74.43,1.13.88,1.13,1.32Zm0,5.57c0,1.81-6.75,3.84-16.44,3.84s-16.45-2-16.45-3.83c0-.44.4-.89,1.13-1.32,3,1.57,9.29,2.4,15.31,2.4s12.32-.84,15.31-2.41c.74.43,1.13.88,1.13,1.32Zm0,5.57c0,1.81-6.75,3.84-16.44,3.84s-16.45-2-16.45-3.83c0-.44.4-.89,1.13-1.32,3,1.57,9.28,2.4,15.31,2.4s12.32-.83,15.31-2.41c.73.43,1.13.88,1.13,1.32Zm0,5.56c0,1.81-6.75,3.84-16.44,3.84s-16.45-2-16.45-3.83c0-.44.4-.89,1.13-1.32,3,1.57,9.29,2.4,15.31,2.4s12.32-.83,15.31-2.41c.74.43,1.14.88,1.14,1.32Zm-16.45-26.1c9.69,0,16.45,2,16.45,3.83s-6.75,3.84-16.44,3.84-16.45-2-16.45-3.84,6.75-3.84,16.45-3.84Zm17.09,6v-2.17c0-2.91-8.8-4.48-17.09-4.48s-17.09,1.58-17.09,4.49v2.17a2.17,2.17,0,0,0,1.15,1.7,2.17,2.17,0,0,0-1.15,1.7v2.17a2.17,2.17,0,0,0,1.15,1.7,2.18,2.18,0,0,0-1.15,1.7v2.17a2.17,2.17,0,0,0,1.15,1.7,2.18,2.18,0,0,0-1.15,1.7v2.17a2.17,2.17,0,0,0,1.15,1.7,2.17,2.17,0,0,0-1.15,1.7v2.17c0,2.91,8.8,4.48,17.09,4.48s17.09-1.58,17.09-4.49v-2.17a2.17,2.17,0,0,0-1.15-1.7,2.17,2.17,0,0,0,1.15-1.7v-2.17a2.17,2.17,0,0,0-1.15-1.7,2.17,2.17,0,0,0,1.15-1.7v-2.17a2.18,2.18,0,0,0-1.15-1.7,2.17,2.17,0,0,0,1.15-1.7v-2.17a2.17,2.17,0,0,0-1.15-1.7,2.17,2.17,0,0,0,1.15-1.7Z" transform="translate(-38.97 -83.31)"/><path class="cls-19" d="M509.39,353.43a65.92,65.92,0,1,1-77.58,51.71,65.93,65.93,0,0,1,77.58-51.71Zm-.42,2.12a3.76,3.76,0,1,0,2.95,4.42,3.76,3.76,0,0,0-2.95-4.42Zm-1.84,9.21a54.37,54.37,0,1,0,42.65,64,54.37,54.37,0,0,0-42.65-64Z" transform="translate(-38.97 -83.31)"/><path class="cls-6" d="M666.95,352.71a1.44,1.44,0,0,1,1.72-2.32l2.32,1.72a1.44,1.44,0,0,1-1.72,2.32l-2.32-1.72ZM592.86,297.6a1.44,1.44,0,0,1,1.72-2.32L596.9,297a1.44,1.44,0,0,1-1.72,2.32l-2.32-1.72Zm9.27,6.89a1.44,1.44,0,1,1,1.72-2.32l2.32,1.72a1.44,1.44,0,1,1-1.72,2.32l-2.32-1.72Zm9.27,6.89a1.44,1.44,0,1,1,1.72-2.32l2.32,1.72a1.44,1.44,0,1,1-1.72,2.32l-2.32-1.72Zm9.21,6.85a1.44,1.44,0,1,1,1.72-2.32l2.32,1.72a1.44,1.44,0,1,1-1.72,2.32l-2.32-1.72Zm9.27,6.89a1.44,1.44,0,1,1,1.72-2.32l2.32,1.72a1.44,1.44,0,1,1-1.72,2.32l-2.32-1.72Zm9.27,6.89a1.44,1.44,0,0,1,1.72-2.32l2.32,1.72a1.44,1.44,0,0,1-1.72,2.32L639.14,332Zm9.27,6.89a1.44,1.44,0,1,1,1.72-2.32l2.32,1.72a1.44,1.44,0,1,1-1.72,2.32l-2.32-1.72Zm9.27,6.89a1.44,1.44,0,1,1,1.72-2.32l2.32,1.72a1.44,1.44,0,1,1-1.72,2.32l-2.32-1.72Z" transform="translate(-38.97 -83.31)"/><path class="cls-20" d="M484.85,447.83l-3,7c-1,2.46-.86,3.15-.64,3.32s.87.32,3.49-.69l7-2.85-6.85-6.74Z" transform="translate(-38.97 -83.31)"/><path class="cls-20" d="M505.43,426.49l-17,17-2.72,3.1,7.22,7.22,19.78-20.1-7.32-7.18Z" transform="translate(-38.97 -83.31)"/><path class="cls-20" d="M515.67,428.31l-4.88-4.91a1.65,1.65,0,0,0-2.33.07l-1.82,1.82c2.52,2.67,6.21,6.28,7.22,7.26l1.89-1.92a1.65,1.65,0,0,0-.07-2.33Z" transform="translate(-38.97 -83.31)"/><text class="cls-13" transform="translate(524.09 132.23)">PEMOHON</text><path class="cls-6" d="M516.9,352.71l-2.32,1.72a1.44,1.44,0,0,1-1.72-2.32l2.32-1.72a1.44,1.44,0,0,1,1.72,2.32ZM591,297.6l-2.32,1.72a1.44,1.44,0,0,1-1.72-2.32l2.32-1.72A1.44,1.44,0,0,1,591,297.6Zm-9.27,6.89-2.32,1.72a1.44,1.44,0,1,1-1.72-2.32l2.32-1.72a1.44,1.44,0,1,1,1.72,2.32Zm-9.27,6.89-2.32,1.72a1.44,1.44,0,1,1-1.72-2.32l2.32-1.72a1.44,1.44,0,1,1,1.72,2.32Zm-9.21,6.85L560.92,320a1.44,1.44,0,1,1-1.72-2.32l2.32-1.72a1.44,1.44,0,1,1,1.72,2.32ZM554,325.14l-2.32,1.72a1.44,1.44,0,1,1-1.72-2.32l2.32-1.72a1.44,1.44,0,1,1,1.72,2.32ZM544.71,332l-2.32,1.72a1.44,1.44,0,0,1-1.72-2.32l2.32-1.72a1.44,1.44,0,0,1,1.72,2.32Zm-9.27,6.89-2.32,1.72a1.44,1.44,0,1,1-1.72-2.32l2.32-1.72a1.44,1.44,0,1,1,1.72,2.32Zm-9.27,6.89-2.32,1.72a1.44,1.44,0,1,1-1.72-2.32l2.32-1.72a1.44,1.44,0,1,1,1.72,2.32Z" transform="translate(-38.97 -83.31)"/><text class="cls-13" transform="translate(426.78 323.23)">TI<tspan class="cls-21" x="8.83" y="0">D</tspan><tspan x="16.66" y="0">AK P</tspan><tspan class="cls-22" x="39.43" y="0">U</tspan><tspan x="46.79" y="0">AS</tspan></text><text class="cls-13" transform="translate(637.11 323.23)">P<tspan class="cls-22" x="6.38" y="0">U</tspan><tspan class="cls-23" x="13.74" y="0">AS</tspan></text><path class="cls-24" d="M689.77,426.64a.5.5,0,0,1-.54.45h0a.5.5,0,0,1-.54-.45V423.4a.5.5,0,0,1,.54-.45h0a.5.5,0,0,1,.54.45v3.23Z" transform="translate(-38.97 -83.31)"/><path class="cls-24" d="M678.47,431.62a.51.51,0,0,1,0,.71h0a.51.51,0,0,1-.7.1l-2.4-2.16a.5.5,0,0,1,0-.71h0a.5.5,0,0,1,.7-.1l2.4,2.16Z" transform="translate(-38.97 -83.31)"/><path class="cls-24" d="M674.61,443.34a.51.51,0,0,1,.51.49h0a.51.51,0,0,1-.39.59l-3.22.34a.5.5,0,0,1-.51-.49h0a.5.5,0,0,1,.39-.59l3.22-.34Z" transform="translate(-38.97 -83.31)"/><path class="cls-24" d="M704.8,443.46a.5.5,0,0,1-.39-.59h0a.51.51,0,0,1,.51-.49l3.21.34a.5.5,0,0,1,.39.59h0a.5.5,0,0,1-.51.49l-3.22-.34Z" transform="translate(-38.97 -83.31)"/><path class="cls-24" d="M701,431.7a.5.5,0,0,1-.7-.1h0a.5.5,0,0,1,0-.7l2.4-2.17a.5.5,0,0,1,.7.1h0a.51.51,0,0,1,0,.71L701,431.7Z" transform="translate(-38.97 -83.31)"/><path class="cls-24" d="M692.84,456.34a1,1,0,0,1-.41.85.83.83,0,0,1-.48.16h-5.55a.82.82,0,0,1-.48-.16,1.05,1.05,0,0,1-.41-.85v-3.12h7.33v3.12Zm-8-21.78a7.19,7.19,0,0,0-.32,11.27.53.53,0,0,1,.09.71h0a.54.54,0,0,1-.79.11,8.27,8.27,0,0,1,.38-13,.54.54,0,0,1,.77.12h0a.53.53,0,0,1-.12.73Zm15.83,5.77a11.53,11.53,0,1,0-16.28,10.51v5.5a2,2,0,0,0,1.65,2.06,4.69,4.69,0,0,0,.29.83,2.64,2.64,0,0,0,2,1.77H690a2.63,2.63,0,0,0,2-1.77,4.53,4.53,0,0,0,.29-.83,2.05,2.05,0,0,0,1.65-2.06v-5.5a11.54,11.54,0,0,0,6.79-10.51Z" transform="translate(-38.97 -83.31)"/><text class="cls-25" transform="translate(262.29 323.23)"><tspan class="cls-26">M</tspan><tspan class="cls-23" x="9.72" y="0">engaju</tspan><tspan class="cls-27" x="44.41" y="0">k</tspan><tspan x="50.26" y="0">an kebe</tspan><tspan class="cls-28" x="89.72" y="0">r</tspan><tspan class="cls-29" x="93.59" y="0">a</tspan><tspan class="cls-23" x="99.32" y="0">tan</tspan><tspan x="18.64" y="20.4">ke Komisi </tspan><tspan class="cls-30" x="68.83" y="20.4">I</tspan><tspan x="71.82" y="20.4">n</tspan><tspan class="cls-31" x="78.48" y="20.4">f</tspan><tspan x="81.83" y="20.4">o</tspan><tspan class="cls-32" x="88.41" y="20.4">r</tspan><tspan x="92.39" y="20.4">masi</tspan></text></svg>